<svg xmlns="http://www.w3.org/2000/svg" xmlns:xlink="http://www.w3.org/1999/xlink" width="500" zoomAndPan="magnify" viewBox="0 0 375 374.999991" height="500" preserveAspectRatio="xMidYMid meet" version="1.0"><defs><g/><clipPath id="df7cbda1d6"><path d="M 90.730469 132.695312 L 278 132.695312 L 278 185.195312 L 90.730469 185.195312 Z M 90.730469 132.695312 " clip-rule="nonzero"/></clipPath><clipPath id="95c40251c9"><path d="M 99 144 L 270 144 L 270 185.195312 L 99 185.195312 Z M 99 144 " clip-rule="nonzero"/></clipPath></defs><rect x="-37.5" width="450" fill="#ffffff" y="-37.499999" height="449.999989" fill-opacity="1"/><rect x="-37.5" width="450" fill="#000000" y="-37.499999" height="449.999989" fill-opacity="1"/><g clip-path="url(#df7cbda1d6)"><path fill="#800080" d="M 171.441406 147.300781 L 163.179688 154.894531 C 162.894531 155.160156 162.726562 155.523438 162.710938 155.914062 L 162.625 157.898438 C 162.613281 158.195312 162.484375 158.476562 162.261719 158.679688 L 159.261719 161.40625 C 159.160156 161.496094 159.027344 161.546875 158.894531 161.542969 L 156.929688 161.496094 C 156.691406 161.488281 156.464844 161.585938 156.308594 161.765625 L 153.347656 165.132812 C 153.183594 165.316406 153.203125 165.597656 153.386719 165.757812 L 159.1875 170.84375 C 159.363281 171 159.628906 170.992188 159.796875 170.824219 L 163.445312 167.175781 C 163.625 166.992188 163.71875 166.742188 163.6875 166.488281 C 163.617188 165.914062 163.976562 165.464844 163.976562 165.464844 C 164.644531 164.734375 165.1875 164.296875 165.984375 163.84375 C 170.378906 161.675781 174.136719 165.433594 174.136719 165.433594 L 195.855469 185.371094 L 161.78125 185.371094 L 129.785156 147.941406 L 96.621094 185.371094 L 90.886719 185.371094 L 96.621094 179.128906 L 96.621094 162.125 L 103.6875 162.125 L 103.6875 171.105469 L 128.847656 142.953125 Z M 277.894531 185.371094 L 273.054688 185.371094 L 245.792969 156.007812 L 217.003906 185.371094 L 206.300781 185.371094 C 206.617188 184.742188 176.976562 160.386719 177.851562 154.351562 C 178.976562 146.578125 189.785156 145.773438 189.785156 145.773438 C 183.710938 142.757812 175.050781 144.796875 175.050781 144.796875 L 184.285156 136.132812 L 210.125 132.695312 L 228.085938 153.585938 L 245.917969 150.910156 Z M 224.519531 153.839844 L 210.1875 136.960938 L 191.714844 159.765625 L 187.574219 159.957031 L 195.855469 167.917969 L 211.398438 155.179688 Z M 224.519531 153.839844 " fill-opacity="1" fill-rule="nonzero"/></g><g clip-path="url(#95c40251c9)"><path fill="#a2a2a3" d="M 269.550781 185.371094 L 266.941406 185.371094 L 244.007812 161.132812 L 245.441406 159.542969 Z M 244.773438 173.90625 L 239.804688 173.90625 L 239.804688 178.871094 L 244.773438 178.871094 Z M 251.441406 173.90625 L 246.472656 173.90625 L 246.472656 178.871094 L 251.441406 178.871094 Z M 244.773438 180.402344 L 239.804688 180.402344 L 239.804688 185.367188 L 244.773438 185.367188 Z M 251.441406 180.402344 L 246.472656 180.402344 L 246.472656 185.367188 L 251.441406 185.367188 Z M 127.707031 171.546875 L 121.714844 171.546875 L 121.714844 177.539062 L 127.707031 177.539062 Z M 135.742188 171.546875 L 129.753906 171.546875 L 129.753906 177.539062 L 135.742188 177.539062 Z M 127.707031 179.378906 L 121.714844 179.378906 L 121.714844 185.371094 L 127.707031 185.371094 Z M 135.742188 179.378906 L 129.753906 179.378906 L 129.753906 185.371094 L 135.742188 185.371094 Z M 210.980469 144.882812 L 208.195312 144.882812 L 208.195312 147.664062 L 210.980469 147.664062 Z M 214.714844 144.882812 L 211.929688 144.882812 L 211.929688 147.664062 L 214.714844 147.664062 Z M 210.980469 148.523438 L 208.195312 148.523438 L 208.195312 151.304688 L 210.980469 151.304688 Z M 214.714844 148.523438 L 211.929688 148.523438 L 211.929688 151.304688 L 214.714844 151.304688 Z M 129.753906 151.71875 L 99.972656 185.371094 L 102.4375 185.371094 L 131.140625 153.28125 Z M 129.753906 151.71875 " fill-opacity="1" fill-rule="nonzero"/></g><g fill="#d8b035" fill-opacity="1"><g transform="translate(91.874733, 219.240989)"><g><path d="M 11.125 0.421875 C 14.984375 0.421875 17.390625 -1.53125 18.046875 -4.8125 L 18.4375 -4.8125 L 18.3125 0 L 24.453125 0 C 24.421875 -4.8125 24.359375 -7.875 24.390625 -11.484375 L 13.78125 -11.484375 L 13.78125 -9.171875 L 17.359375 -9.171875 C 18.109375 -9.171875 18.375 -8.125 18.375 -7.21875 C 18.046875 -6.671875 17.203125 -5.296875 16.1875 -4.75 C 15.3125 -4.328125 14.234375 -4.0625 12.90625 -4.0625 C 9.359375 -4.0625 7.375 -7.765625 7.375 -12.65625 C 7.375 -15.96875 8 -17.984375 9.046875 -19.640625 C 10.015625 -20.25 11.125 -20.609375 12.390625 -20.609375 C 15.765625 -20.609375 17.078125 -17.953125 17.359375 -14.171875 L 23.671875 -14.890625 C 23.15625 -21.953125 20.6875 -25.203125 12.515625 -25.203125 C 4.6875 -25.203125 1.109375 -21.03125 1.109375 -12.421875 C 1.109375 -4.125 4.625 0.421875 11.125 0.421875 Z M 11.125 0.421875 "/></g></g></g><g fill="#d8b035" fill-opacity="1"><g transform="translate(118.558925, 219.240989)"><g><path d="M 24.390625 0 C 22.34375 -7.40625 19.21875 -18.109375 17.53125 -24.8125 L 6.765625 -24.8125 C 5.109375 -18.015625 1.890625 -7.0625 -0.03125 0 L 6.5 0 C 6.921875 -1.4375 7.453125 -3.34375 8 -5.53125 C 9.296875 -5.53125 10.625 -5.53125 12.125 -5.53125 L 16.453125 -5.53125 C 16.9375 -3.671875 17.390625 -1.859375 17.75 0 Z M 8.90625 -9.046875 C 9.859375 -12.84375 10.921875 -17.140625 11.96875 -21.203125 L 12.21875 -21.203125 C 13.109375 -17.078125 14.3125 -13.03125 15.484375 -9.046875 Z M 8.90625 -9.046875 "/></g></g></g><g fill="#d8b035" fill-opacity="1"><g transform="translate(144.105557, 219.240989)"><g><path d="M 2.046875 0 L 8.484375 0 C 8.421875 -1.359375 8.390625 -4.578125 8.390625 -6.765625 L 14.703125 -6.765625 C 20.546875 -6.765625 23.671875 -9.46875 23.671875 -15.9375 C 23.671875 -22.40625 19.9375 -24.8125 13.359375 -24.8125 L 2.046875 -24.8125 C 2.078125 -20.90625 2.109375 -16.78125 2.109375 -12.390625 C 2.109375 -8 2.078125 -3.90625 2.046875 0 Z M 8.359375 -10.734375 L 8.390625 -20.453125 L 12.359375 -20.453125 C 15.40625 -20.453125 17.234375 -19.25 17.234375 -15.609375 C 17.234375 -11.9375 15.28125 -10.734375 12.421875 -10.734375 Z M 8.359375 -10.734375 "/></g></g></g><g fill="#d8b035" fill-opacity="1"><g transform="translate(170.107213, 219.240989)"><g><path d="M 2.046875 0 L 8.453125 0 C 8.453125 -1.890625 8.421875 -6.671875 8.453125 -8.9375 L 12.84375 -8.9375 C 15.578125 -8.9375 16.390625 -8.125 16.96875 -5.625 C 17.140625 -3.796875 17.65625 -1.625 17.984375 0 L 24.84375 0 C 24.390625 -1.265625 23.609375 -4.546875 23.4375 -5.78125 C 22.828125 -9.234375 20.90625 -10.765625 15.96875 -10.890625 L 15.96875 -11.34375 C 21.109375 -11.40625 23.734375 -13.234375 23.734375 -18.109375 C 23.734375 -23.46875 20.09375 -24.8125 13.421875 -24.8125 L 2.046875 -24.8125 C 2.109375 -21.140625 2.25 -16.125 2.25 -12.359375 C 2.25 -8.609375 2.109375 -3.734375 2.046875 0 Z M 8.390625 -13 L 8.390625 -20.453125 L 12.390625 -20.453125 C 15.546875 -20.453125 17.203125 -19.671875 17.203125 -16.6875 C 17.203125 -13.953125 15.671875 -13 12.390625 -13 Z M 8.390625 -13 "/></g></g></g><g fill="#d8b035" fill-opacity="1"><g transform="translate(197.278924, 219.240989)"><g><path d="M 2.046875 0 L 8.453125 0 C 8.328125 -4.125 8.328125 -8.265625 8.328125 -12.421875 C 8.328125 -16.546875 8.328125 -20.6875 8.453125 -24.8125 L 2.046875 -24.8125 C 2.171875 -20.640625 2.171875 -16.546875 2.171875 -12.390625 C 2.171875 -8.265625 2.171875 -4.125 2.046875 0 Z M 2.046875 0 "/></g></g></g><g fill="#d8b035" fill-opacity="1"><g transform="translate(208.979879, 219.240989)"><g><path d="M 2.046875 0 L 13.859375 0 C 20.90625 0 24.1875 -1.59375 24.1875 -6.765625 C 24.1875 -10.625 21.984375 -12.1875 15.3125 -12.546875 L 15.3125 -13 C 21.71875 -13.359375 23.609375 -15.15625 23.609375 -18.796875 C 23.609375 -23.796875 19.796875 -24.8125 13.328125 -24.8125 L 2.046875 -24.8125 C 2.109375 -21.421875 2.21875 -15.640625 2.21875 -12.390625 C 2.21875 -9.75 2.109375 -2.5625 2.046875 0 Z M 8.359375 -14.4375 L 8.359375 -20.78125 L 12.609375 -20.78125 C 15.515625 -20.78125 17.078125 -20 17.078125 -17.5 C 17.078125 -15.25 15.671875 -14.4375 12.609375 -14.4375 Z M 8.359375 -4.515625 L 8.359375 -11.0625 L 12.609375 -11.0625 C 16.0625 -11.0625 17.78125 -10.28125 17.78125 -7.90625 C 17.78125 -5.390625 16.328125 -4.515625 12.84375 -4.515625 Z M 8.359375 -4.515625 "/></g></g></g><g fill="#d8b035" fill-opacity="1"><g transform="translate(235.501549, 219.240989)"><g><path d="M 24.390625 0 C 22.34375 -7.40625 19.21875 -18.109375 17.53125 -24.8125 L 6.765625 -24.8125 C 5.109375 -18.015625 1.890625 -7.0625 -0.03125 0 L 6.5 0 C 6.921875 -1.4375 7.453125 -3.34375 8 -5.53125 C 9.296875 -5.53125 10.625 -5.53125 12.125 -5.53125 L 16.453125 -5.53125 C 16.9375 -3.671875 17.390625 -1.859375 17.75 0 Z M 8.90625 -9.046875 C 9.859375 -12.84375 10.921875 -17.140625 11.96875 -21.203125 L 12.21875 -21.203125 C 13.109375 -17.078125 14.3125 -13.03125 15.484375 -9.046875 Z M 8.90625 -9.046875 "/></g></g></g><g fill="#d8b035" fill-opacity="1"><g transform="translate(261.048174, 219.240989)"><g><path d="M 7.640625 0 L 14.46875 0 L 14.46875 -8.390625 L 14.796875 -8.390625 C 16.78125 -8.390625 17.5 -9.046875 18.015625 -11.3125 L 22.140625 -24.8125 L 14.953125 -24.8125 L 11.90625 -12.65625 L 10.25 -12.65625 L 7.1875 -24.8125 L -0.03125 -24.8125 L 4.03125 -11.34375 C 4.546875 -9.078125 5.296875 -8.390625 7.25 -8.390625 L 7.640625 -8.390625 Z M 7.640625 0 "/></g></g></g><g fill="#ffd700" fill-opacity="1"><g transform="translate(133.981652, 238.061126)"><g><path d="M 7.90625 -9.5625 C 7.484375 -9.5625 7.0625 -9.296875 7.0625 -8.78125 L 7.0625 -5.359375 L 2.5625 -5.359375 L 2.5625 -8.78125 C 2.5625 -9.296875 2.125 -9.5625 1.6875 -9.5625 C 1.25 -9.5625 0.84375 -9.296875 0.84375 -8.78125 L 0.84375 -0.8125 C 0.84375 -0.28125 1.28125 0 1.734375 0 C 2.125 0 2.5625 -0.25 2.5625 -0.8125 L 2.5625 -3.90625 L 7.0625 -3.90625 L 7.0625 -0.8125 C 7.0625 -0.265625 7.484375 0 7.90625 0 C 8.328125 0 8.796875 -0.265625 8.796875 -0.8125 L 8.796875 -8.78125 C 8.796875 -9.296875 8.328125 -9.5625 7.90625 -9.5625 Z M 7.90625 -9.5625 "/></g></g></g><g fill="#ffd700" fill-opacity="1"><g transform="translate(156.249053, 238.061126)"><g><path d="M 10.140625 -4.78125 C 10.140625 -7.734375 8.1875 -9.71875 5.25 -9.71875 C 2.3125 -9.71875 0.328125 -7.734375 0.328125 -4.78125 C 0.328125 -1.8125 2.3125 0.15625 5.25 0.15625 C 8.1875 0.15625 10.140625 -1.8125 10.140625 -4.78125 Z M 5.25 -1.375 C 3.359375 -1.375 2.109375 -2.75 2.109375 -4.78125 C 2.109375 -6.8125 3.359375 -8.1875 5.25 -8.1875 C 7.125 -8.1875 8.375 -6.8125 8.375 -4.78125 C 8.375 -2.75 7.125 -1.375 5.25 -1.375 Z M 5.25 -1.375 "/></g></g></g><g fill="#ffd700" fill-opacity="1"><g transform="translate(179.447211, 238.061126)"><g><path d="M 1.765625 -9.5625 C 1.34375 -9.5625 0.921875 -9.234375 0.921875 -8.703125 L 0.921875 -0.78125 C 0.921875 -0.25 1.34375 0 1.78125 0 C 2.203125 0 2.65625 -0.25 2.65625 -0.78125 L 2.65625 -5.828125 L 4.859375 -2.390625 C 5.03125 -2.09375 5.375 -1.90625 5.671875 -1.90625 C 5.96875 -1.90625 6.296875 -2.046875 6.453125 -2.34375 L 8.6875 -5.84375 L 8.6875 -0.78125 C 8.6875 -0.25 9.109375 0 9.546875 0 C 9.96875 0 10.4375 -0.25 10.4375 -0.78125 L 10.4375 -8.71875 C 10.4375 -9.265625 10.03125 -9.5625 9.59375 -9.5625 C 9.3125 -9.5625 9 -9.4375 8.796875 -9.125 L 5.671875 -4.203125 L 2.53125 -9.109375 C 2.359375 -9.40625 2.0625 -9.5625 1.765625 -9.5625 Z M 1.765625 -9.5625 "/></g></g></g><g fill="#ffd700" fill-opacity="1"><g transform="translate(203.50107, 238.061126)"><g><path d="M 7.828125 -1.5 L 2.578125 -1.5 L 2.578125 -4 L 7.546875 -4 C 8.078125 -4 8.328125 -4.359375 8.328125 -4.71875 C 8.328125 -5.09375 8.0625 -5.46875 7.546875 -5.46875 L 2.578125 -5.46875 L 2.578125 -8.09375 L 7.828125 -8.09375 C 8.328125 -8.09375 8.625 -8.484375 8.625 -8.84375 C 8.625 -9.21875 8.359375 -9.5625 7.828125 -9.5625 L 1.859375 -9.5625 C 1.265625 -9.5625 0.875 -9.15625 0.875 -8.671875 L 0.875 -0.90625 C 0.875 -0.40625 1.265625 0 1.859375 0 L 7.828125 0 C 8.375 0 8.65625 -0.359375 8.65625 -0.71875 C 8.65625 -1.09375 8.34375 -1.5 7.828125 -1.5 Z M 7.828125 -1.5 "/></g></g></g><g fill="#ffd700" fill-opacity="1"><g transform="translate(225.107923, 238.061126)"><g><path d="M 0.109375 -2.265625 C 0.609375 -0.390625 3 0.15625 4.5625 0.15625 C 6.4375 0.15625 9.0625 -0.515625 9.0625 -2.890625 C 9.0625 -5.28125 6.8125 -5.375 4.734375 -5.578125 C 3.265625 -5.671875 2 -5.796875 2 -6.765625 C 2 -7.828125 3.625 -8.109375 4.421875 -8.109375 C 5.34375 -8.109375 6.703125 -7.984375 7.0625 -7.0625 C 7.171875 -6.78125 7.5 -6.640625 7.828125 -6.640625 C 8.328125 -6.640625 8.84375 -7.0625 8.671875 -7.609375 C 7.96875 -9.265625 5.96875 -9.71875 4.421875 -9.71875 C 2.53125 -9.71875 0.1875 -8.84375 0.1875 -6.78125 C 0.1875 -4.5 2.515625 -4.21875 4.5625 -4.046875 C 5.90625 -3.953125 7.265625 -3.828125 7.265625 -2.890625 C 7.265625 -1.703125 5.609375 -1.421875 4.5625 -1.421875 C 3.5625 -1.421875 2.171875 -1.65625 1.84375 -2.625 C 1.765625 -3.015625 1.40625 -3.21875 1.015625 -3.21875 C 0.5 -3.21875 -0.046875 -2.859375 0.109375 -2.265625 Z M 0.109375 -2.265625 "/></g></g></g><path stroke-linecap="butt" transform="matrix(0.75, 0.000000000000003344, -0.000000000000003344, 0.75, 258.937634, 230.610042)" fill="none" stroke-linejoin="miter" d="M -0.000178529 4.49911 L 25.494615 4.49911 " stroke="#800080" stroke-width="9" stroke-opacity="1" stroke-miterlimit="4"/><path stroke-linecap="butt" transform="matrix(0.75, 0, 0, 0.75, 90.729001, 230.610042)" fill="none" stroke-linejoin="miter" d="M 0.00195708 4.49911 L 25.49675 4.49911 " stroke="#800080" stroke-width="9" stroke-opacity="1" stroke-miterlimit="4"/></svg>